<svg width="248" height="64" viewBox="0 0 248 64" fill="none" xmlns="http://www.w3.org/2000/svg">
<path d="M33.9738 64C31.4445 64 28.8603 63.974 25.837 63.922L25.7038 63.9194L25.5653 63.9142C18.62 63.6359 12.6572 61.295 8.33011 57.1438C6.08818 54.9928 4.31919 52.5348 3.0728 49.8428C1.68531 46.8439 0.982422 43.6394 0.982422 40.3206C0.982422 35.0536 2.82196 29.8178 6.16395 25.5808C8.97029 22.02 12.7382 19.2812 16.919 17.731C17.128 16.9377 17.3815 16.1522 17.6715 15.3823C18.7271 12.5992 20.274 10.0814 22.2729 7.89401C24.4104 5.55312 26.9763 3.69081 29.8976 2.3591C32.8842 0.99618 36.1635 0.234089 39.6388 0.0884337C39.7041 0.0858327 39.9001 0.0806307 39.9001 0.0806307C42.534 0.0260099 45.0398 0 47.5639 0C50.0828 0 52.6671 0.0260099 55.7007 0.0780298L55.834 0.0806307L55.9646 0.0858327C62.9178 0.364139 68.8806 2.70503 73.2077 6.85621C75.4496 9.00984 77.2186 11.4652 78.465 14.1572C79.8525 17.1561 80.5554 20.3606 80.5554 23.6794C80.5554 28.9464 78.7158 34.1822 75.3738 38.4193C72.5675 41.98 68.7996 44.7188 64.6188 46.269C64.4098 47.0623 64.1563 47.8478 63.8663 48.6177C62.8106 51.4008 61.2638 53.9212 59.2648 56.106C57.1274 58.4469 54.5615 60.3092 51.6402 61.6409C48.6509 63.0038 45.3716 63.7659 41.8964 63.9116C41.8102 63.9142 41.6377 63.9194 41.6377 63.9194C39.009 63.974 36.5006 64 33.9738 64Z" fill="white"/>
<path d="M99.6118 28.8554C99.6118 27.1544 101.255 25.9111 104.017 25.9111C107.041 25.9111 109.672 26.8917 111.775 29.3808L116.311 24.6678C113.944 21.3958 109.473 19.4971 103.819 19.4971C95.7969 19.4971 91.7207 24.08 91.7207 28.858C91.7207 40.1151 108.619 37.3659 108.619 42.9944C108.619 44.9582 107.041 46.2665 103.949 46.2665C100.202 46.2665 97.1766 44.9582 94.7439 42.2739L90.2731 47.3797C92.9697 50.5217 97.5058 52.6805 103.49 52.6805C112.037 52.6805 116.573 48.1652 116.573 42.8644C116.575 31.1469 99.6118 34.3539 99.6118 28.8554Z" fill="#17121F"/>
<path d="M133.071 20.4126V12.2975H125.049V20.4126H119.46V27.4821H124.984V41.0306C124.984 48.688 129.06 52.6805 135.438 52.6805C139.319 52.6805 142.276 51.2421 144.051 49.5385L140.434 43.5822C139.645 44.4978 138.198 45.1532 136.753 45.1532C134.385 45.1532 133.136 43.7149 133.136 40.7679V27.4821H147.756V51.7649H155.778V20.4126H147.756H133.071Z" fill="#17121F"/>
<path d="M151.701 6.79907C149.138 6.79907 147.032 8.9579 147.032 11.5121C147.032 14.1313 149.136 16.16 151.701 16.16C154.333 16.16 156.436 14.1313 156.436 11.5121C156.436 8.9605 154.33 6.79907 151.701 6.79907Z" fill="#17121F"/>
<path d="M177.303 45.1532C174.936 45.1532 173.687 43.7149 173.687 40.7679V27.4821H182.169V20.4126H173.622V12.2975H165.6V20.4126H160.011V27.4821H165.535V41.0306C165.535 48.688 169.611 52.6805 175.989 52.6805C179.869 52.6805 182.827 51.2421 184.601 49.5385L180.985 43.5822C180.196 44.4978 178.748 45.1532 177.303 45.1532Z" fill="#17121F"/>
<path d="M202.811 27.0217C205.902 27.0217 208.27 28.0049 210.243 29.901L214.844 24.2075C212.082 21.3282 207.807 19.4971 202.417 19.4971C193.211 19.4971 185.979 26.9593 185.979 36.1226C185.979 45.2209 193.211 52.6805 202.547 52.6805C207.543 52.6805 212.082 50.7168 214.58 47.9675L210.504 42.0763C208.531 44.04 205.968 45.1532 202.746 45.1532C197.617 45.1532 194 41.0957 194 36.055C194 31.0143 197.551 27.0217 202.811 27.0217Z" fill="#17121F"/>
<path d="M236.033 19.4971C232.152 19.4971 229.129 20.938 227.156 23.4896V6.73401H219.135V51.7624H227.156V33.9612C227.156 29.706 229.589 27.0243 233.6 27.0243C237.48 27.0243 239.978 29.7086 239.978 33.9612V51.7624H248V32.7803C247.997 24.6028 243.331 19.4971 236.033 19.4971Z" fill="#17121F"/>
<path d="M74.1928 16.1156C73.192 13.9542 71.7627 11.9723 69.9441 10.227C66.461 6.88472 61.559 4.9964 55.7739 4.76231L55.6955 4.75971L55.6171 4.75711C52.6201 4.70509 50.062 4.67908 47.5639 4.67908C45.0712 4.67908 42.5941 4.70509 39.9942 4.75711H39.9759C39.9288 4.75711 39.8792 4.75971 39.8322 4.76231C36.9683 4.88195 34.2848 5.50359 31.8547 6.61161C29.5135 7.67802 27.4597 9.16839 25.7508 11.0385C24.1543 12.7864 22.9158 14.8047 22.0691 17.0312C21.5335 18.4409 21.1729 19.8949 20.9874 21.3696L20.0572 21.6271C16.0907 22.7274 12.4691 25.1567 9.86133 28.4652C7.16996 31.8855 5.68579 36.0939 5.68579 40.3179C5.68579 42.9579 6.24497 45.5016 7.34503 47.8816C8.3458 50.043 9.7751 52.0249 11.5937 53.7702C15.0768 57.1125 19.9788 59.0008 25.7639 59.2349L25.8423 59.2375L25.9207 59.2401C28.9178 59.2921 31.4759 59.3181 33.9739 59.3181C36.4666 59.3181 38.9437 59.2921 41.5437 59.2401H41.5619C41.609 59.2401 41.656 59.2375 41.703 59.2349C44.5669 59.1152 47.253 58.4936 49.6857 57.3856C52.0269 56.3192 54.0807 54.8288 55.7896 52.9587C57.3861 51.2108 58.6247 49.1925 59.4713 46.966C60.0069 45.5563 60.3675 44.1023 60.5531 42.6275L61.4833 42.37C65.4498 41.2698 69.0714 38.8405 71.6791 35.532C74.3731 32.1143 75.8572 27.9059 75.8572 23.6819C75.8546 21.0419 75.2955 18.4955 74.1928 16.1156ZM59.6333 35.7765C59.4033 34.1925 57.6135 29.7448 54.7052 27.7031C54.6791 27.6849 54.6921 27.6432 54.7261 27.6432C55.0162 27.6458 55.2984 27.6458 55.5858 27.6406C58.5045 27.6406 60.0827 25.7107 60.0827 23.8822C60.0827 23.0421 59.7927 22.1005 59.1081 21.3618C58.447 20.6518 57.2894 20.1472 55.9725 20.1238C51.128 20.0431 45.5284 20.0353 40.6866 20.1238C39.3697 20.1472 38.2121 20.6518 37.551 21.3618C36.8664 22.0979 36.5764 23.0421 36.5764 23.8822C36.5764 24.7978 37.0467 25.7081 37.6373 26.3323C38.6955 27.4534 40.799 27.8643 42.0271 28.1036C46.4482 28.9697 48.7163 30.239 50.6342 32.2626C52.4398 34.0989 53.8194 36.9132 53.8194 40.3179V40.3205C53.8194 45.9828 49.6413 52.0613 41.4156 52.3995C41.4156 52.3995 41.413 52.3995 41.4078 52.3995C36.012 52.5087 31.4262 52.4931 26.0461 52.3995C22.0587 52.2382 18.701 51.0808 16.3702 48.8465C14.0395 46.6123 12.5658 43.7252 12.5658 40.3205C12.5658 34.6607 16.6838 29.6772 21.9098 28.2259C22.1397 29.8099 23.9296 34.2576 26.8378 36.2993C26.864 36.3175 26.8509 36.3592 26.8169 36.3592C26.5269 36.3566 26.2447 36.3566 25.9573 36.3618C23.0386 36.3618 21.4603 38.2917 21.4603 40.1202C21.4603 40.9603 21.7504 41.9019 22.435 42.6406C23.096 43.3506 24.2536 43.8552 25.5705 43.8786C30.415 43.9593 36.0146 43.9671 40.8564 43.8786C42.1734 43.8552 43.3309 43.3506 43.992 42.6406C44.6766 41.9045 44.9667 40.9603 44.9667 40.1202C44.9667 39.2046 44.4963 38.2943 43.9058 37.6701C42.8475 36.549 40.7441 36.1381 39.516 35.8988C35.0948 35.0327 32.8268 33.7634 30.9088 31.7398C29.1033 29.9035 27.7236 27.0892 27.7236 23.6845V23.6819C27.7236 18.0196 31.9018 11.941 40.1274 11.6029C40.1274 11.6029 40.13 11.6029 40.1353 11.6029C45.5311 11.4937 50.1168 11.5093 55.4969 11.6029C59.4843 11.7642 62.842 12.9216 65.1728 15.1559C67.5036 17.3927 68.9773 20.2772 68.9773 23.6819C68.9773 29.3417 64.8619 34.3252 59.6333 35.7765Z" fill="#911FFF"/>
</svg>
